<?xml version="1.0" encoding="UTF-8"?>
<!DOCTYPE svg PUBLIC "-//W3C//DTD SVG 1.1//EN" "http://www.w3.org/Graphics/SVG/1.1/DTD/svg11.dtd">
<!-- Creator: CorelDRAW 2017 -->
<svg xmlns="http://www.w3.org/2000/svg" xml:space="preserve" width="100mm" height="100mm" version="1.1" style="shape-rendering:geometricPrecision; text-rendering:geometricPrecision; image-rendering:optimizeQuality; fill-rule:evenodd; clip-rule:evenodd"
viewBox="0 0 10000 10000"
 xmlns:xlink="http://www.w3.org/1999/xlink">
 <defs>
  <style type="text/css">
   <![CDATA[
    .fil5 {fill:#D2D3D5}
    .fil1 {fill:#FFF212}
    .fil11 {fill:#84716B}
    .fil4 {fill:#C8C5E2}
    .fil6 {fill:#9D98CA}
    .fil3 {fill:#00AFEF}
    .fil2 {fill:#3E4095}
    .fil10 {fill:#030303}
    .fil7 {fill:#6B6B6B}
    .fil8 {fill:gray}
    .fil9 {fill:#A2A2A2}
    .fil0 {fill:#FCFCFC}
   ]]>
  </style>
 </defs>
 <g id="Layer_x0020_1">
  <metadata id="CorelCorpID_0Corel-Layer"/>
  <g id="_1264645223872">
   <polygon class="fil0" points="3060,3411 3101,3411 3101,3535 3142,3535 3142,3700 3101,3700 3101,3741 3060,3741 3060,3782 3019,3782 3019,3824 2977,3824 2977,3865 2936,3865 2936,4278 2977,4278 2977,4401 3019,4401 3019,4443 3142,4443 3142,4484 3184,4484 3184,4525 3266,4525 3266,4649 3308,4649 3308,4732 3349,4732 3349,4856 3390,4856 3390,4979 3431,4979 3431,5103 3473,5103 3473,5186 3514,5186 3514,5268 3555,5268 3555,5310 3597,5310 3597,5351 3638,5351 3638,5392 3720,5392 3720,5433 3762,5433 3762,5475 3844,5475 3844,5516 3885,5516 3885,5557 3968,5557 3968,5599 4051,5599 4051,5640 4092,5640 4092,5681 4216,5681 4216,5722 4629,5722 4629,5681 4752,5681 4752,5640 4835,5640 4835,5599 4917,5599 4917,5557 4959,5557 4959,5516 5041,5516 5041,5475 5124,5475 5124,5433 5165,5433 5165,5392 5248,5392 5248,5351 5289,5351 5289,5310 5330,5310 5330,5268 5372,5268 5372,5186 5413,5186 5413,5062 5454,5062 5454,4979 5495,4979 5495,4897 5537,4897 5537,4649 5578,4649 5578,4608 5619,4608 5619,4525 5660,4525 5660,4484 5743,4484 5743,4443 5867,4443 5867,4401 5908,4401 5908,4236 5949,4236 5949,3865 5908,3865 5908,3824 5867,3824 5867,3782 5826,3782 5826,3741 5784,3741 5784,3700 5743,3700 5743,3535 5784,3535 5784,3204 3060,3204 "/>
   <polygon class="fil1" points="5083,1429 5083,1512 5041,1512 5041,1553 5000,1553 5000,1595 4794,1595 4794,1553 4711,1553 4711,1471 4670,1471 4670,934 4174,934 4174,1471 4133,1471 4133,1553 4051,1553 4051,1595 3844,1595 3844,1553 3803,1553 3803,1512 3762,1512 3762,1306 3679,1306 3679,1347 3597,1347 3597,1388 3514,1388 3514,1429 3431,1429 3431,1471 3390,1471 3390,1512 3349,1512 3349,1553 3308,1553 3308,1595 3225,1595 3225,1636 3184,1636 3184,1718 3142,1718 3142,1760 3101,1760 3101,1801 3060,1801 3060,1884 3019,1884 3019,1966 2977,1966 2977,2007 2936,2007 2936,2131 2895,2131 2895,2420 2854,2420 2854,2792 5991,2792 5991,2255 5949,2255 5949,2172 5908,2172 5908,2007 5867,2007 5867,1925 5826,1925 5826,1884 5784,1884 5784,1801 5743,1801 5743,1760 5702,1760 5702,1718 5660,1718 5660,1636 5619,1636 5619,1595 5578,1595 5578,1553 5495,1553 5495,1512 5454,1512 5454,1471 5413,1471 5413,1429 5330,1429 5330,1388 5248,1388 5248,1347 5124,1347 5124,1429 "/>
   <polygon class="fil2" points="5908,8323 5867,8323 5867,8364 5826,8364 5826,8405 3019,8405 3019,8364 2977,8364 2977,8323 2936,8323 2936,6837 2812,6837 2812,6878 2647,6878 2647,6919 2606,6919 2606,9066 6238,9066 6238,6919 6197,6919 6197,6878 6115,6878 6115,6837 5991,6837 5991,6796 5908,6796 "/>
   <polygon class="fil3" points="3225,6588 3225,8116 5619,8116 5619,6541 5448,6541 5448,6495 5363,6495 5363,6588 5320,6588 5320,6680 5277,6680 5277,6727 5234,6727 5234,6819 5192,6819 5192,6866 5149,6866 5149,6912 5106,6912 5106,6958 5021,6958 5021,7005 4978,7005 4978,7051 4892,7051 4892,7097 4807,7097 4807,7144 4636,7144 4636,7190 4251,7190 4251,7144 4123,7144 4123,7097 3995,7097 3995,7051 3909,7051 3909,7005 3866,7005 3866,6958 3781,6958 3781,6912 3738,6912 3738,6866 3695,6866 3695,6819 3653,6819 3653,6773 3610,6773 3610,6680 3567,6680 3567,6634 3524,6634 3524,6541 3482,6541 3482,6495 3439,6495 3439,6541 3311,6541 3311,6588 "/>
   <polygon class="fil3" points="2234,7126 2152,7126 2152,7167 2111,7167 2111,7208 2069,7208 2069,7250 2028,7250 2028,7291 1987,7291 1987,7332 1945,7332 1945,7373 1904,7373 1904,7415 1863,7415 1863,7497 1822,7497 1822,7580 1780,7580 1780,7621 1739,7621 1739,7704 1698,7704 1698,7828 1656,7828 1656,7910 1615,7910 1615,8116 1574,8116 1574,9066 2317,9066 2317,7085 2234,7085 "/>
   <polygon class="fil4" points="8385,6507 8509,6507 8509,5516 8467,5516 8467,5475 8426,5475 8426,5433 8385,5433 8385,5392 8344,5392 8344,5351 8302,5351 8302,5310 7023,5310 7023,5929 8013,5929 8013,5970 8137,5970 8137,6011 8178,6011 8178,6053 8261,6053 8261,6094 8302,6094 8302,6176 8344,6176 8344,6300 8385,6300 "/>
   <polygon class="fil0" points="3803,6589 3844,6589 3844,6630 3885,6630 3885,6713 3927,6713 3927,6754 3968,6754 3968,6796 4009,6796 4009,6837 4092,6837 4092,6878 4174,6878 4174,6919 4711,6919 4711,6878 4794,6878 4794,6837 4835,6837 4835,6796 4876,6796 4876,6754 4917,6754 4917,6713 4959,6713 4959,6672 5000,6672 5000,6630 5041,6630 5041,6548 5083,6548 5083,5970 5041,5970 5041,6011 4959,6011 4959,6053 4876,6053 4876,6094 4670,6094 4670,6135 4133,6135 4133,6094 4051,6094 4051,6053 3927,6053 3927,6011 3844,6011 3844,5970 3803,5970 "/>
   <polygon class="fil5" points="7601,7869 7601,6259 7394,6259 7394,7869 "/>
   <polygon class="fil6" points="6445,5929 6734,5929 6734,5310 6445,5310 "/>
   <polygon class="fil7" points="7394,7869 7394,6259 7601,6259 7601,7869 7642,7869 7642,6218 7353,6218 7353,7869 "/>
   <polygon class="fil8" points="7601,9190 7642,9190 7642,8158 7353,8158 7353,8199 7601,8199 "/>
   <polygon class="fil8" points="8385,6507 8385,6548 8550,6548 8550,5640 8509,5640 8509,6507 "/>
   <polygon class="fil8" points="6403,2296 6403,2131 6362,2131 6362,2049 6321,2049 6321,2172 6362,2172 6362,2296 "/>
   <polygon class="fil8" points="8839,5599 8839,5475 8798,5475 8798,5433 8756,5433 8756,5516 8798,5516 8798,5599 "/>
   <polygon class="fil8" points="2399,6548 2523,6548 2523,6507 2565,6507 2565,6465 2482,6465 2482,6507 2399,6507 "/>
   <polygon class="fil9" points="5165,1347 5165,1306 5083,1306 5083,1429 5124,1429 5124,1347 "/>
   <polygon class="fil3" points="6601,6941 6691,6941 6691,6987 6736,6987 6736,7032 6781,7032 6781,7077 6826,7077 6826,7122 6871,7122 6871,7167 6917,7167 6917,7212 6962,7212 6962,7258 7007,7258 7007,7348 7052,7348 7052,7438 7097,7438 7097,7483 7142,7483 7142,7574 7188,7574 7188,7709 7233,7709 7233,7799 7278,7799 7278,8025 7323,8025 7323,9063 6510,9063 6510,6896 6601,6896 "/>
   <path class="fil10" d="M2606 6919l41 0 0 -41 165 0 0 -41 124 0 0 1486 41 0 0 41 41 0 0 41 2807 0 0 -41 41 0 0 -41 41 0 0 -1527 83 0 0 41 124 0 0 41 83 0 0 41 41 0 0 2146 -3632 0 0 -2146zm4747 1280l0 -41 289 0 0 1032 -372 0 0 -41 -41 0 0 -41 -41 0 0 -41 -41 0 0 -41 -41 0 0 -289 41 0 0 -83 41 0 0 -124 41 0 0 -83 41 0 0 -124 41 0 0 -124 41 0zm0 -1981l289 0 0 1651 -289 0 0 -1651zm1156 -578l41 0 0 908 -165 0 0 -248 -41 0 0 -124 -41 0 0 -83 -41 0 0 -41 -83 0 0 -41 -41 0 0 -41 -124 0 0 -41 -991 0 0 -619 1280 0 0 41 41 0 0 41 41 0 0 41 41 0 0 41 41 0 0 41 41 0 0 124zm-2064 -330l289 0 0 619 -289 0 0 -619zm2394 289l-41 0 0 -83 -41 0 0 -165 -41 0 0 -41 -41 0 0 -41 -41 0 0 -41 -41 0 0 -41 -41 0 0 -41 -41 0 0 -41 -83 0 0 -41 -83 0 0 -41 -1403 0 0 41 -124 0 0 -41 -619 0 0 41 -41 0 0 1115 41 0 0 41 619 0 0 -41 124 0 0 41 165 0 0 699 -206 -121 0 -41 -41 0 0 -41 -83 0 0 -41 -41 0 0 -41 -83 0 0 -41 -83 0 0 -41 -124 0 0 -41 -124 0 0 -41 -124 0 0 -41 -124 0 0 -41 -124 0 0 -41 -124 0 0 -41 -206 0 0 -41 -124 0 0 -578 41 0 0 -41 41 0 0 -41 41 0 0 -41 41 0 0 -41 41 0 0 -83 41 0 0 -41 41 0 0 -83 41 0 0 -165 41 0 0 -124 41 0 0 -124 41 0 0 -41 41 0 0 -41 83 0 0 -41 41 0 0 -41 41 0 0 -41 41 0 0 -41 41 0 0 -41 41 0 0 -124 41 0 0 -206 41 0 0 -495 -41 0 0 -83 -41 0 0 -83 -41 0 0 -41 -41 0 0 -372 537 0 0 -41 41 0 0 -41 41 0 0 -41 41 0 0 -165 -41 0 0 -83 -83 0 0 -41 -330 0 0 -495 -41 0 0 -124 -41 0 0 -165 -41 0 0 -124 -41 0 0 -124 -41 0 0 -83 -41 0 0 -83 -41 0 0 -41 -41 0 0 -41 -41 0 0 -83 -41 0 0 -41 -41 0 0 -41 -41 0 0 -41 -41 0 0 -41 -41 0 0 -41 -41 0 0 -41 -83 0 0 -41 -41 0 0 -41 -83 0 0 -41 -41 0 0 -41 -83 0 0 -41 -124 0 0 -41 -124 0 0 -41 -124 0 0 -289 -41 0 0 -41 -41 0 0 -41 -1156 0 0 41 -41 0 0 41 -41 0 0 248 -41 0 0 41 -83 0 0 41 -124 0 0 41 -124 0 0 41 -41 0 0 41 -83 0 0 41 -83 0 0 41 -41 0 0 41 -41 0 0 41 -83 0 0 41 -41 0 0 41 -41 0 0 41 -41 0 0 41 -41 0 0 83 -41 0 0 41 -41 0 0 41 -41 0 0 83 -41 0 0 41 -41 0 0 124 -41 0 0 83 -41 0 0 83 -41 0 0 124 -41 0 0 124 -41 0 0 578 -330 0 0 41 -41 0 0 41 -41 0 0 41 -41 0 0 165 41 0 0 41 41 0 0 41 41 0 0 41 537 0 0 413 -41 0 0 41 -41 0 0 83 -41 0 0 495 41 0 0 289 41 0 0 124 41 0 0 41 41 0 0 41 41 0 0 41 83 0 0 41 83 0 0 41 41 0 0 41 41 0 0 165 41 0 0 124 41 0 0 165 41 0 0 41 41 0 0 83 41 0 0 41 41 0 0 41 41 0 0 41 41 0 0 41 41 0 0 41 41 0 0 578 -206 0 0 41 -124 0 0 41 -83 0 0 41 -124 0 0 41 -124 0 0 41 -165 0 0 41 -41 0 0 41 -206 0 0 41 -83 0 0 41 -83 0 0 41 -83 0 0 41 -41 0 0 41 -41 0 0 41 -83 0 0 41 -41 0 0 41 -41 0 0 41 -41 0 0 41 -41 0 0 41 -41 0 0 41 -41 0 0 41 -41 0 0 41 -41 0 0 41 -41 0 0 83 -41 0 0 41 -41 0 0 83 -41 0 0 83 -41 0 0 83 -41 0 0 41 -41 0 0 124 -41 0 0 206 -41 0 0 41 -41 0 0 1403 41 0 0 83 83 0 0 41 5903 0 62 0 599 0 0 -41 41 0 0 -41 41 0 0 -3137 83 0 0 41 83 0 0 495 41 0 0 41 619 0 0 -41 41 0 0 -41 41 0 0 -1156zm-1734 1872l0 564 -41 0 0 83 -41 0 0 124 -41 0 0 165 -41 0 0 41 -41 0 0 124 -41 0 0 124 -41 0 0 371 -165 1 -124 0 0 -2023 83 0 0 41 41 0 0 41 41 0 0 41 83 0 0 41 41 0 0 41 41 0 0 41 41 0 0 41 206 138zm-5531 646l41 0 0 -206 41 0 0 -83 41 0 0 -124 41 0 0 -83 41 0 0 -41 41 0 0 -83 41 0 0 -83 41 0 0 -41 41 0 0 -41 41 0 0 -41 41 0 0 -41 41 0 0 -41 41 0 0 -41 41 0 0 -41 83 0 0 -41 83 0 0 1981 -743 0 0 -949zm4004 -1403l41 0 0 1403 -2394 0 0 -1403 124 0 0 -41 124 0 0 -41 41 0 0 41 41 0 0 83 41 0 0 41 41 0 0 83 41 0 0 41 41 0 0 41 41 0 0 41 41 0 0 41 83 0 0 41 41 0 0 41 83 0 0 41 124 0 0 41 124 0 0 41 372 0 0 -41 165 0 0 -41 83 0 0 -41 83 0 0 -41 41 0 0 -41 83 0 0 -41 41 0 0 -41 41 0 0 -41 41 0 0 -83 41 0 0 -41 41 0 0 -83 41 0 0 -83 83 0 0 41 165 0 0 41zm-537 -83l-41 0 0 41 -41 0 0 41 -41 0 0 41 -41 0 0 41 -41 0 0 41 -41 0 0 41 -83 0 0 41 -537 0 0 -41 -83 0 0 -41 -83 0 0 -41 -41 0 0 -41 -41 0 0 -41 -41 0 0 -83 -41 0 0 -41 -41 0 0 -619 41 0 0 41 83 0 0 41 124 0 0 41 83 0 0 41 537 0 0 -41 206 0 0 -41 83 0 0 -41 83 0 0 -41 41 0 0 578 -41 0 0 83zm-1981 -3426l2724 0 0 330 -41 0 0 165 41 0 0 41 41 0 0 41 41 0 0 41 41 0 0 41 41 0 0 372 -41 0 0 165 -41 0 0 41 -124 0 0 41 -83 0 0 41 -41 0 0 83 -41 0 0 41 -41 0 0 248 -41 0 0 83 -41 0 0 83 -41 0 0 124 -41 0 0 83 -41 0 0 41 -41 0 0 41 -41 0 0 41 -83 0 0 41 -41 0 0 41 -83 0 0 41 -83 0 0 41 -41 0 0 41 -83 0 0 41 -83 0 0 41 -124 0 0 41 -413 0 0 -41 -124 0 0 -41 -41 0 0 -41 -83 0 0 -41 -83 0 0 -41 -41 0 0 -41 -83 0 0 -41 -41 0 0 -41 -83 0 0 -41 -41 0 0 -41 -41 0 0 -41 -41 0 0 -83 -41 0 0 -83 -41 0 0 -124 -41 0 0 -124 -41 0 0 -124 -41 0 0 -83 -41 0 0 -124 -83 0 0 -41 -41 0 0 -41 -124 0 0 -41 -41 0 0 -124 -41 0 0 -413 41 0 0 -41 41 0 0 -41 41 0 0 -41 41 0 0 -41 41 0 0 -165 -41 0 0 -124 -41 0 0 -206zm2105 -1858l83 0 0 41 83 0 0 41 83 0 0 41 41 0 0 41 41 0 0 41 83 0 0 41 41 0 0 41 41 0 0 83 41 0 0 41 41 0 0 41 41 0 0 83 41 0 0 41 41 0 0 83 41 0 0 165 41 0 0 83 41 0 0 537 -3137 0 0 -372 41 0 0 -289 41 0 0 -124 41 0 0 -41 41 0 0 -83 41 0 0 -83 41 0 0 -41 41 0 0 -41 41 0 0 -83 41 0 0 -41 83 0 0 -41 41 0 0 -41 41 0 0 -41 41 0 0 -41 83 0 0 -41 83 0 0 -41 83 0 0 -41 83 0 0 206 41 0 0 41 41 0 0 41 206 0 0 -41 83 0 0 -83 41 0 0 -537 495 0 0 537 41 0 0 83 83 0 0 41 206 0 0 -41 41 0 0 -41 41 0 0 -206 83 0 0 41z"/>
   <polygon class="fil11" points="7601,9190 7601,8199 7312,8199 7312,8323 7270,8323 7270,8447 7229,8447 7229,8529 7188,8529 7188,8653 7146,8653 7146,8736 7105,8736 7105,9025 7146,9025 7146,9066 7188,9066 7188,9107 7229,9107 7229,9148 7270,9148 7270,9190 "/>
  </g>
 </g>
</svg>
