<?xml version="1.0" standalone="no"?>
<!DOCTYPE svg PUBLIC "-//W3C//DTD SVG 20010904//EN"
 "http://www.w3.org/TR/2001/REC-SVG-20010904/DTD/svg10.dtd">
<svg version="1.0" xmlns="http://www.w3.org/2000/svg"
 width="700.000000pt" height="700.000000pt" viewBox="0 0 700.000000 700.000000"
 preserveAspectRatio="xMidYMid meet">
<metadata>
Created by potrace 1.14, written by Peter Selinger 2001-2017
</metadata>
<g transform="translate(0.000000,700.000000) scale(0.100000,-0.100000)"
fill="#000000" stroke="none">
<path d="M2690 6615 c0 -8 -7 -15 -15 -15 -8 0 -15 -7 -15 -15 0 -8 -7 -15
-15 -15 -12 0 -15 -16 -15 -80 0 -67 -3 -83 -20 -100 -11 -11 -29 -20 -40 -20
-11 0 -20 -7 -20 -15 0 -11 -12 -15 -45 -15 -33 0 -45 -4 -45 -15 0 -11 -12
-15 -45 -15 -33 0 -45 -4 -45 -15 0 -8 -7 -15 -15 -15 -8 0 -15 -7 -15 -15 0
-9 -9 -15 -24 -15 -13 0 -26 -7 -30 -15 -3 -8 -15 -15 -26 -15 -12 0 -31 -11
-44 -25 -13 -14 -28 -25 -35 -25 -6 0 -11 -7 -11 -15 0 -10 -10 -15 -30 -15
-20 0 -30 -5 -30 -15 0 -8 -7 -15 -15 -15 -8 0 -15 -5 -15 -11 0 -6 -18 -29
-40 -50 -22 -22 -40 -47 -40 -57 0 -18 -33 -52 -50 -52 -6 0 -10 -7 -10 -15 0
-8 -7 -15 -15 -15 -10 0 -15 -10 -15 -30 0 -20 -5 -30 -15 -30 -8 0 -15 -7
-15 -15 0 -8 -7 -15 -15 -15 -11 0 -15 -12 -15 -45 0 -25 -4 -45 -10 -45 -5 0
-10 -11 -10 -25 0 -16 -6 -25 -15 -25 -10 0 -15 -10 -15 -30 0 -20 -5 -30 -15
-30 -11 0 -15 -12 -15 -45 0 -33 -4 -45 -15 -45 -11 0 -15 -12 -15 -45 0 -33
-4 -45 -15 -45 -13 0 -15 -29 -15 -200 l0 -200 -115 0 c-96 0 -115 -3 -115
-15 0 -8 -7 -15 -15 -15 -8 0 -15 -7 -15 -15 0 -8 -7 -15 -15 -15 -8 0 -15 -7
-15 -15 0 -8 -7 -15 -15 -15 -12 0 -15 -13 -15 -55 0 -42 3 -55 15 -55 8 0 15
-7 15 -15 0 -8 7 -15 15 -15 8 0 15 -7 15 -15 0 -8 7 -15 15 -15 8 0 15 -7 15
-15 0 -13 28 -15 190 -15 l190 0 0 -138 0 -138 -30 -24 c-16 -14 -29 -35 -30
-47 0 -14 -6 -23 -15 -23 -13 0 -15 -26 -15 -175 0 -149 2 -175 15 -175 12 0
15 -18 15 -99 0 -79 3 -100 15 -105 10 -3 15 -19 15 -46 0 -29 4 -40 15 -40 8
0 15 -5 15 -10 0 -20 67 -80 89 -80 11 0 21 -4 21 -10 0 -5 14 -10 30 -10 20
0 30 -5 30 -15 0 -8 7 -15 15 -15 8 0 15 -7 15 -15 0 -8 7 -15 15 -15 12 0 15
-13 15 -60 0 -47 3 -60 15 -60 11 0 15 -11 15 -40 0 -22 5 -40 10 -40 6 0 10
-27 10 -60 0 -47 3 -60 15 -60 8 0 15 -7 15 -15 0 -8 7 -15 15 -15 10 0 15
-10 15 -30 0 -20 5 -30 15 -30 8 0 15 -7 15 -15 0 -8 5 -15 11 -15 6 0 37 -27
70 -59 l59 -59 0 -196 0 -196 -70 0 c-56 0 -70 -3 -70 -15 0 -11 -11 -15 -40
-15 -27 0 -43 -5 -46 -15 -4 -8 -17 -15 -30 -15 -14 0 -27 -7 -30 -15 -4 -10
-20 -15 -45 -15 -28 0 -39 -4 -39 -15 0 -11 -12 -15 -45 -15 -33 0 -45 -4 -45
-15 0 -12 -13 -15 -60 -15 -47 0 -60 -3 -60 -15 0 -8 -7 -15 -15 -15 -8 0 -15
-4 -15 -9 0 -4 -31 -12 -70 -15 -38 -4 -70 -11 -70 -17 0 -5 -11 -9 -25 -9
-14 0 -28 -7 -31 -15 -4 -8 -17 -15 -30 -15 -15 0 -24 -6 -24 -15 0 -10 -10
-15 -30 -15 -20 0 -30 -5 -30 -15 0 -8 -7 -15 -15 -15 -8 0 -15 -7 -15 -15 0
-8 -7 -15 -15 -15 -8 0 -15 -7 -15 -15 0 -10 -10 -15 -30 -15 -20 0 -30 -5
-30 -15 0 -8 -7 -15 -15 -15 -8 0 -15 -5 -15 -11 0 -14 -25 -39 -39 -39 -6 0
-11 -7 -11 -15 0 -8 -7 -15 -15 -15 -8 0 -15 -7 -15 -15 0 -8 -7 -15 -15 -15
-8 0 -15 -7 -15 -15 0 -8 -7 -15 -15 -15 -8 0 -15 -7 -15 -15 0 -8 -7 -15 -15
-15 -8 0 -15 -7 -15 -15 0 -8 -7 -15 -15 -15 -8 0 -15 -7 -15 -15 0 -8 -7 -15
-15 -15 -9 0 -15 -9 -15 -25 0 -14 -4 -25 -10 -25 -5 0 -10 -7 -10 -15 0 -8
-7 -15 -15 -15 -10 0 -15 -10 -15 -30 0 -20 -5 -30 -15 -30 -10 0 -15 -10 -15
-30 0 -20 -5 -30 -15 -30 -10 0 -15 -10 -15 -30 0 -20 -5 -30 -15 -30 -8 0
-15 -7 -15 -15 0 -8 -7 -15 -15 -15 -11 0 -15 -11 -15 -39 0 -25 -5 -41 -15
-45 -11 -4 -15 -22 -15 -76 0 -56 -3 -70 -15 -70 -8 0 -15 -7 -15 -15 0 -8 -4
-15 -10 -15 -7 0 -10 -170 -10 -490 0 -297 4 -490 9 -490 5 0 11 -12 13 -27 2
-22 9 -29 31 -31 15 -2 27 -8 27 -13 0 -5 881 -9 2295 -9 l2296 0 34 34 35 33
0 1092 0 1091 25 0 c16 0 25 -6 25 -15 0 -10 10 -15 30 -15 l30 0 0 -175 c0
-149 2 -175 15 -175 8 0 15 -7 15 -15 0 -13 31 -15 215 -15 184 0 215 2 215
15 0 8 7 15 15 15 8 0 15 7 15 15 0 8 7 15 15 15 13 0 15 52 15 405 0 351 -2
406 -15 411 -8 4 -15 17 -15 30 0 15 -6 24 -15 24 -12 0 -15 13 -15 55 0 42
-3 55 -15 55 -8 0 -15 7 -15 15 0 8 -7 15 -15 15 -8 0 -15 7 -15 15 0 8 -7 15
-15 15 -8 0 -15 5 -15 11 0 7 -11 22 -25 35 -14 13 -25 28 -25 34 0 5 -7 10
-15 10 -8 0 -15 7 -15 15 0 10 -10 15 -30 15 -20 0 -30 5 -30 15 0 10 -10 15
-30 15 -16 0 -30 5 -30 10 0 7 -170 10 -490 10 -320 0 -490 -3 -490 -10 0 -5
-20 -10 -45 -10 -25 0 -45 5 -45 10 0 6 -77 10 -210 10 -184 0 -212 -2 -230
-17 -19 -17 -20 -29 -20 -398 0 -369 1 -381 20 -398 18 -15 46 -17 230 -17
133 0 210 4 210 10 0 6 20 10 45 10 25 0 45 -4 45 -10 0 -5 25 -10 55 -10 l55
0 0 -246 0 -246 -22 14 c-13 8 -44 27 -70 42 -27 15 -48 34 -48 42 0 8 -7 14
-15 14 -8 0 -15 7 -15 15 0 10 -10 15 -30 15 -16 0 -30 4 -30 10 0 19 -35 50
-57 50 -13 0 -23 5 -23 10 0 6 -13 10 -30 10 -20 0 -30 5 -30 15 0 11 -12 15
-45 15 -33 0 -45 4 -45 15 0 11 -11 15 -40 15 -29 0 -40 4 -40 15 0 11 -12 15
-45 15 -33 0 -45 4 -45 15 0 11 -12 15 -45 15 -33 0 -45 4 -45 15 0 11 -12 15
-45 15 -33 0 -45 4 -45 15 0 11 -11 15 -39 15 -25 0 -41 5 -45 15 -4 11 -22
15 -76 15 -40 0 -70 4 -70 10 0 6 -18 10 -40 10 l-40 0 0 205 c0 176 2 205 15
205 8 0 15 5 15 11 0 14 85 99 99 99 6 0 11 14 11 30 0 20 5 30 15 30 8 0 15
7 15 15 0 8 7 15 15 15 10 0 15 10 15 30 0 20 5 30 15 30 11 0 15 13 15 54 0
39 4 55 15 60 10 3 15 19 15 46 0 22 5 40 10 40 6 0 10 16 10 36 0 29 8 44 39
75 21 22 47 39 56 39 10 0 28 11 41 25 13 14 28 25 34 25 5 0 10 5 10 10 0 5
18 28 40 50 32 32 40 47 40 75 0 22 6 38 15 41 11 5 15 23 15 75 0 55 3 69 15
69 13 0 15 26 15 175 0 149 -2 175 -15 175 -9 0 -15 9 -15 24 0 13 -7 26 -15
30 -8 3 -15 15 -15 26 0 12 -11 31 -25 44 -24 22 -25 28 -25 150 l0 126 185 0
c158 0 185 2 185 15 0 8 7 15 15 15 8 0 15 7 15 15 0 8 7 15 15 15 8 0 15 7
15 15 0 8 7 15 15 15 12 0 15 13 15 55 0 42 -3 55 -15 55 -10 0 -15 10 -15 30
0 27 -3 30 -30 30 -20 0 -30 5 -30 15 0 12 -19 15 -115 15 l-115 0 0 175 c0
149 -2 175 -15 175 -11 0 -15 11 -15 39 0 25 -5 41 -15 45 -11 4 -15 21 -15
61 0 42 -3 55 -15 55 -11 0 -15 12 -15 45 0 25 -4 45 -10 45 -5 0 -10 18 -10
40 0 29 -4 40 -15 40 -10 0 -15 10 -15 30 0 20 -5 30 -15 30 -10 0 -15 10 -15
30 0 20 -5 30 -15 30 -8 0 -15 7 -15 15 0 8 -7 15 -15 15 -8 0 -15 7 -15 15 0
8 -7 15 -15 15 -8 0 -15 9 -15 20 0 11 -18 37 -40 59 -22 21 -40 44 -40 50 0
6 -7 11 -15 11 -8 0 -15 7 -15 15 0 8 -7 15 -15 15 -8 0 -15 7 -15 15 0 8 -7
15 -15 15 -8 0 -15 7 -15 15 0 10 -10 15 -26 15 -16 0 -36 11 -50 25 -13 14
-31 25 -41 25 -19 0 -53 32 -53 50 0 6 -13 10 -30 10 -20 0 -30 5 -30 15 0 11
-12 15 -45 15 -33 0 -45 4 -45 15 0 11 -12 15 -45 15 -33 0 -45 4 -45 15 0 11
-11 15 -40 15 l-40 0 0 100 c0 82 -3 100 -15 100 -8 0 -15 7 -15 15 0 8 -7 15
-15 15 -8 0 -15 7 -15 15 0 13 -52 15 -405 15 -353 0 -405 -2 -405 -15z m578
-457 c1 -105 6 -188 12 -188 5 0 10 -12 12 -27 2 -21 9 -29 28 -31 14 -2 29
-10 33 -18 5 -10 27 -14 69 -14 56 0 64 3 94 35 32 32 34 39 34 100 l0 65 30
0 c17 0 30 -4 30 -10 0 -5 14 -10 30 -10 20 0 30 -5 30 -15 0 -10 10 -15 30
-15 20 0 30 -5 30 -15 0 -10 10 -15 30 -15 20 0 30 -5 30 -15 0 -8 7 -15 15
-15 8 0 15 -7 15 -15 0 -8 7 -15 15 -15 8 0 15 -7 15 -15 0 -10 10 -15 30 -15
17 0 30 -5 30 -11 0 -14 25 -39 39 -39 6 0 11 -13 11 -30 0 -20 5 -30 15 -30
8 0 15 -7 15 -15 0 -8 7 -15 15 -15 8 0 15 -7 15 -15 0 -8 7 -15 15 -15 10 0
15 -10 15 -30 0 -20 5 -30 15 -30 8 0 15 -7 15 -15 0 -8 7 -15 15 -15 9 0 15
-9 15 -25 0 -14 5 -25 10 -25 6 0 10 -27 10 -60 0 -47 3 -60 15 -60 10 0 15
-10 15 -30 0 -20 5 -30 15 -30 13 0 15 -27 15 -185 l0 -185 -1095 0 -1095 0 0
130 c0 109 2 130 15 130 12 0 15 18 15 100 0 60 4 100 10 100 6 0 10 17 10 38
0 36 25 72 50 72 6 0 10 14 10 30 0 20 5 30 15 30 10 0 15 10 15 30 0 20 5 30
15 30 8 0 15 7 15 15 0 8 7 15 15 15 8 0 15 7 15 15 0 8 7 15 15 15 9 0 15 10
15 26 0 33 21 54 54 54 16 0 26 6 26 15 0 8 7 15 15 15 8 0 15 7 15 15 0 8 7
15 15 15 8 0 15 7 15 15 0 8 7 15 15 15 8 0 15 7 15 15 0 10 10 15 30 15 20 0
30 5 30 15 0 10 10 15 30 15 20 0 30 5 30 15 0 9 9 15 24 15 13 0 26 7 30 15
3 8 17 15 31 15 25 0 25 -1 25 -75 0 -60 3 -75 15 -75 8 0 15 -7 15 -15 0 -8
7 -15 15 -15 8 0 15 -7 15 -15 0 -12 14 -15 70 -15 56 0 70 3 70 15 0 10 10
15 30 15 27 0 30 3 30 30 0 20 5 30 15 30 13 0 15 28 15 190 l0 190 173 -2
172 -3 3 -187z m782 -1513 c0 -96 -3 -115 -15 -115 -12 0 -15 -13 -15 -60 0
-47 3 -60 15 -60 8 0 15 -7 15 -15 0 -8 7 -15 15 -15 8 0 15 -7 15 -15 0 -8 7
-15 15 -15 8 0 15 -5 15 -11 0 -14 25 -39 39 -39 7 0 11 -46 11 -135 0 -113
-2 -135 -15 -135 -12 0 -15 -13 -15 -55 0 -30 -4 -55 -10 -55 -5 0 -10 -7 -10
-15 0 -11 -12 -15 -45 -15 -33 0 -45 -4 -45 -15 0 -10 -10 -15 -30 -15 -20 0
-30 -5 -30 -15 0 -8 -7 -15 -15 -15 -8 0 -15 -9 -15 -20 0 -12 -11 -31 -25
-44 -23 -21 -25 -31 -25 -105 0 -63 -3 -83 -15 -87 -8 -4 -15 -17 -15 -30 0
-14 -7 -27 -15 -30 -8 -4 -15 -17 -15 -30 0 -15 -6 -24 -15 -24 -11 0 -15 -12
-15 -45 0 -33 -4 -45 -15 -45 -10 0 -15 -10 -15 -30 0 -20 -5 -30 -15 -30 -8
0 -15 -7 -15 -15 0 -8 -7 -15 -15 -15 -8 0 -15 -7 -15 -15 0 -8 -7 -15 -15
-15 -8 0 -15 -4 -15 -10 0 -5 -11 -10 -25 -10 -16 0 -25 -6 -25 -15 0 -8 -7
-15 -15 -15 -8 0 -15 -7 -15 -15 0 -10 -10 -15 -30 -15 -20 0 -30 -5 -30 -15
0 -10 -10 -15 -30 -15 -20 0 -30 -5 -30 -15 0 -8 -7 -15 -15 -15 -8 0 -15 -7
-15 -15 0 -10 -10 -15 -30 -15 -20 0 -30 -5 -30 -15 0 -9 -9 -15 -24 -15 -13
0 -26 -7 -30 -15 -3 -10 -19 -15 -46 -15 -22 0 -40 -4 -40 -10 0 -6 -55 -10
-145 -10 -90 0 -145 4 -145 10 0 6 -17 10 -38 10 -30 0 -43 6 -62 30 -14 16
-35 29 -47 30 -14 0 -23 6 -23 15 0 10 -10 15 -30 15 -20 0 -30 5 -30 15 0 8
-7 15 -15 15 -8 0 -15 7 -15 15 0 10 -10 15 -30 15 -20 0 -30 5 -30 15 0 8 -7
15 -15 15 -8 0 -15 7 -15 15 0 9 -9 15 -25 15 -14 0 -25 5 -25 10 0 6 -7 10
-15 10 -8 0 -15 7 -15 15 0 8 -7 15 -15 15 -8 0 -15 7 -15 15 0 8 -7 15 -15
15 -10 0 -15 10 -15 30 0 20 -5 30 -15 30 -10 0 -15 10 -15 30 0 20 -5 30 -15
30 -11 0 -15 11 -15 39 0 25 -5 41 -15 45 -10 3 -15 19 -15 45 0 25 -5 41 -15
45 -10 3 -15 19 -15 46 0 22 -4 40 -10 40 -5 0 -10 11 -10 25 0 14 -7 28 -15
31 -10 4 -15 20 -15 45 0 37 -2 39 -30 39 -20 0 -30 5 -30 15 0 8 -7 15 -15
15 -8 0 -15 7 -15 15 0 11 -12 15 -45 15 -33 0 -45 4 -45 15 0 8 -7 15 -15 15
-11 0 -15 12 -15 45 0 25 -4 45 -10 45 -6 0 -10 54 -10 141 0 141 7 169 39
169 6 0 11 7 11 15 0 8 7 15 15 15 8 0 15 7 15 15 0 8 7 15 15 15 8 0 15 7 15
15 0 8 7 15 15 15 12 0 15 13 15 55 0 40 -4 57 -15 61 -10 4 -15 20 -15 45 0
28 -4 39 -15 39 -12 0 -15 15 -15 75 l0 75 955 0 955 0 0 -115z m660 -1580 l0
-215 -100 0 -100 0 0 215 0 215 100 0 100 0 0 -215z m1100 200 c0 -8 4 -15 10
-15 5 0 37 -27 70 -59 52 -51 60 -64 60 -95 0 -23 5 -39 15 -42 13 -5 15 -50
15 -320 l0 -314 -55 0 -55 0 0 85 c0 69 -3 85 -15 85 -11 0 -15 12 -15 45 0
33 -4 45 -15 45 -10 0 -15 10 -15 30 0 20 -5 30 -15 30 -8 0 -15 5 -15 10 0 6
-11 10 -25 10 -16 0 -25 6 -25 15 0 8 -7 15 -15 15 -8 0 -15 7 -15 15 0 11
-12 15 -45 15 -33 0 -45 4 -45 15 0 13 -45 15 -345 15 l-345 0 0 215 0 215
445 0 c389 0 445 -2 445 -15z m-3120 -460 c0 -10 10 -15 30 -15 20 0 30 -5 30
-15 0 -11 12 -15 45 -15 33 0 45 -4 45 -15 0 -9 9 -15 25 -15 14 0 25 -4 25
-10 0 -6 70 -10 190 -10 120 0 190 4 190 10 0 6 30 10 70 10 56 0 70 3 70 15
0 10 10 15 30 15 20 0 30 5 30 15 0 10 10 15 30 15 20 0 30 5 30 15 0 8 7 15
15 15 13 0 15 -29 15 -200 0 -171 -2 -200 -15 -200 -10 0 -15 -10 -15 -30 0
-20 -5 -30 -15 -30 -8 0 -15 -7 -15 -15 0 -8 -7 -15 -15 -15 -8 0 -15 -7 -15
-15 0 -8 -7 -15 -15 -15 -8 0 -15 -7 -15 -15 0 -8 -7 -15 -15 -15 -8 0 -15 -5
-15 -11 0 -21 -58 -69 -84 -69 -16 0 -26 -6 -26 -15 0 -13 -28 -15 -190 -15
-162 0 -190 2 -190 15 0 10 -10 15 -30 15 -16 0 -30 5 -30 10 0 6 -11 10 -25
10 -16 0 -25 6 -25 15 0 8 -7 15 -15 15 -8 0 -15 7 -15 15 0 8 -7 15 -15 15
-8 0 -15 7 -15 15 0 8 -7 15 -15 15 -10 0 -15 10 -15 30 0 20 -5 30 -15 30 -8
0 -15 7 -15 15 0 8 -7 15 -15 15 -13 0 -15 31 -15 215 0 184 2 215 15 215 8 0
15 -7 15 -15z m2630 -750 l0 -565 -75 0 -75 0 0 565 0 565 75 0 75 0 0 -565z
m-2860 280 c0 -8 5 -15 10 -15 6 0 10 -11 10 -25 0 -16 6 -25 15 -25 8 0 15
-7 15 -15 0 -8 7 -15 15 -15 10 0 15 -10 15 -30 0 -20 5 -30 15 -30 8 0 15 -7
15 -15 0 -8 7 -15 15 -15 8 0 15 -7 15 -15 0 -8 7 -15 15 -15 8 0 15 -7 15
-15 0 -8 7 -15 15 -15 8 0 15 -4 15 -10 0 -5 11 -10 25 -10 16 0 25 -6 25 -15
0 -8 7 -15 15 -15 8 0 15 -7 15 -15 0 -10 10 -15 30 -15 20 0 30 -5 30 -15 0
-11 12 -15 45 -15 33 0 45 -4 45 -15 0 -11 12 -15 45 -15 33 0 45 -4 45 -15 0
-13 21 -15 130 -15 109 0 130 2 130 15 0 12 13 15 60 15 47 0 60 3 60 15 0 10
10 15 30 15 20 0 30 5 30 15 0 9 9 15 23 15 22 0 57 31 57 50 0 6 14 10 30 10
17 0 30 5 30 10 0 6 7 10 15 10 8 0 15 7 15 15 0 8 7 15 15 15 8 0 15 7 15 15
0 8 7 15 15 15 10 0 15 10 15 30 0 20 5 30 15 30 8 0 15 7 15 15 0 8 7 15 15
15 10 0 15 10 15 30 0 17 5 30 10 30 6 0 10 11 10 25 0 20 5 25 25 25 14 0 25
-4 25 -10 0 -6 27 -10 60 -10 47 0 60 -3 60 -15 0 -8 7 -15 15 -15 13 0 15
-61 15 -490 l0 -490 -835 0 -835 0 0 490 0 490 45 0 c25 0 45 5 45 10 0 6 18
10 40 10 27 0 43 5 46 15 4 8 10 15 15 15 5 0 9 -7 9 -15z m2160 -285 c0 -5 7
-10 15 -10 8 0 15 -7 15 -15 0 -8 7 -15 15 -15 8 0 15 -7 15 -15 0 -10 10 -15
30 -15 20 0 30 -5 30 -15 0 -8 7 -15 15 -15 8 0 15 -7 15 -15 0 -8 7 -15 15
-15 8 0 15 -7 15 -15 0 -8 7 -15 15 -15 8 0 15 -6 15 -14 0 -7 32 -34 70 -60
l70 -46 0 -195 c0 -167 -2 -195 -15 -195 -10 0 -15 -10 -15 -30 0 -20 -5 -30
-15 -30 -11 0 -15 -12 -15 -45 0 -33 -4 -45 -15 -45 -11 0 -15 -12 -15 -50 0
-41 -5 -55 -25 -74 -19 -18 -25 -33 -25 -65 0 -30 -4 -41 -15 -41 -11 0 -15
-11 -15 -40 0 -29 -4 -40 -15 -40 -13 0 -15 -22 -15 -135 l0 -135 -100 0 -100
0 0 705 0 705 25 0 c14 0 25 -4 25 -10z m-3000 -700 l0 -689 -260 -3 -260 -3
0 332 c0 291 2 332 15 327 13 -5 15 6 15 70 0 61 3 76 15 76 10 0 15 10 15 30
0 20 5 30 15 30 11 0 15 12 15 45 0 33 4 45 15 45 9 0 15 9 15 23 1 12 14 33
30 47 17 14 30 34 30 47 0 13 5 23 10 23 6 0 10 14 10 30 0 20 5 30 15 30 8 0
15 7 15 15 0 8 7 15 15 15 8 0 15 7 15 15 0 8 4 14 9 13 5 -2 20 9 34 25 14
15 31 27 37 27 5 0 10 5 10 10 0 6 11 21 25 34 14 13 25 28 25 35 0 6 14 11
30 11 20 0 30 5 30 15 0 10 10 15 30 15 l30 0 0 -690z m3720 -425 c0 -236 -3
-355 -10 -355 -7 0 -10 115 -8 348 l3 347 -87 -3 c-58 -2 -88 0 -88 7 0 7 34
11 95 11 l95 0 0 -355z"/>
</g>
</svg>
